<svg xmlns="http://www.w3.org/2000/svg" xmlns:xlink="http://www.w3.org/1999/xlink" viewBox="0 0 804.77 969.4"><defs><style>.cls-1,.cls-10,.cls-11,.cls-12,.cls-13,.cls-14,.cls-3,.cls-4,.cls-5,.cls-6,.cls-7,.cls-8,.cls-9{fill:none;}.cls-2{clip-path:url(#clip-path);}.cls-10,.cls-11,.cls-12,.cls-13,.cls-14,.cls-3,.cls-4,.cls-5,.cls-6,.cls-7,.cls-8,.cls-9{stroke-linecap:round;stroke-miterlimit:10;stroke-width:12px;}.cls-3{stroke:url(#Sky);}.cls-4{stroke:url(#Sky-2);}.cls-5{stroke:url(#Sky-3);}.cls-6{stroke:url(#Sky-4);}.cls-7{stroke:url(#Sky-5);}.cls-8{stroke:url(#Sky-6);}.cls-9{stroke:url(#Sky-7);}.cls-10{stroke:url(#Sky-8);}.cls-11{stroke:url(#Sky-9);}.cls-12{stroke:url(#Sky-10);}.cls-13{stroke:url(#Sky-11);}.cls-14{stroke:url(#Sky-12);}</style><clipPath id="clip-path"><path class="cls-1" d="M644.2,486.05c0,98.58-83.21,178.5-185.86,178.5s-185.87-79.92-185.87-178.5,83.22-178.5,185.87-178.5S644.2,387.47,644.2,486.05Z"/></clipPath><linearGradient id="Sky" y1="304.85" x2="400.8" y2="304.85" gradientUnits="userSpaceOnUse"><stop offset="0" stop-color="#cce0f4"/><stop offset="0.06" stop-color="#c3dcf2"/><stop offset="0.17" stop-color="#a9d2ee"/><stop offset="0.31" stop-color="#80c2e7"/><stop offset="0.46" stop-color="#47acde"/><stop offset="0.57" stop-color="#1e9cd7"/><stop offset="0.87" stop-color="#0075be"/><stop offset="0.99" stop-color="#005b97"/></linearGradient><linearGradient id="Sky-2" x1="36.72" y1="337.55" x2="437.52" y2="337.55" xlink:href="#Sky"/><linearGradient id="Sky-3" x1="73.45" y1="370.25" x2="474.25" y2="370.25" xlink:href="#Sky"/><linearGradient id="Sky-4" x1="110.17" y1="402.95" x2="510.97" y2="402.95" xlink:href="#Sky"/><linearGradient id="Sky-5" x1="146.9" y1="435.65" x2="547.7" y2="435.65" xlink:href="#Sky"/><linearGradient id="Sky-6" x1="183.62" y1="468.35" x2="584.42" y2="468.35" xlink:href="#Sky"/><linearGradient id="Sky-7" x1="220.35" y1="501.05" x2="621.15" y2="501.05" xlink:href="#Sky"/><linearGradient id="Sky-8" x1="257.07" y1="533.75" x2="657.87" y2="533.75" xlink:href="#Sky"/><linearGradient id="Sky-9" x1="293.8" y1="566.45" x2="694.6" y2="566.45" xlink:href="#Sky"/><linearGradient id="Sky-10" x1="330.52" y1="599.15" x2="731.32" y2="599.15" xlink:href="#Sky"/><linearGradient id="Sky-11" x1="367.25" y1="631.85" x2="768.05" y2="631.85" xlink:href="#Sky"/><linearGradient id="Sky-12" x1="403.97" y1="664.55" x2="804.77" y2="664.55" xlink:href="#Sky"/></defs><title>Asset 3</title><g id="Layer_2" data-name="Layer 2"><g id="Layer_1-2" data-name="Layer 1"><g class="cls-2"><line class="cls-3" x1="394.8" y1="6" x2="6" y2="603.7"/><line class="cls-4" x1="431.52" y1="38.7" x2="42.72" y2="636.4"/><line class="cls-5" x1="468.25" y1="71.4" x2="79.45" y2="669.1"/><line class="cls-6" x1="504.97" y1="104.1" x2="116.17" y2="701.8"/><line class="cls-7" x1="541.7" y1="136.8" x2="152.9" y2="734.5"/><line class="cls-8" x1="578.42" y1="169.5" x2="189.62" y2="767.2"/><line class="cls-9" x1="615.15" y1="202.2" x2="226.35" y2="799.9"/><line class="cls-10" x1="651.87" y1="234.9" x2="263.07" y2="832.6"/><line class="cls-11" x1="688.6" y1="267.6" x2="299.8" y2="865.3"/><line class="cls-12" x1="725.32" y1="300.3" x2="336.52" y2="898"/><line class="cls-13" x1="762.05" y1="333" x2="373.25" y2="930.7"/><line class="cls-14" x1="798.77" y1="365.7" x2="409.97" y2="963.4"/></g></g></g></svg>